<svg xmlns="http://www.w3.org/2000/svg" width="600" height="600" viewBox="0 0 600 600"><polygon points="341.4,300.0 343.4,306.1 341.9,312.0 338.2,317.0 333.8,321.1 329.7,324.9 325.8,328.7 321.7,332.2 316.8,334.4 311.2,334.3 305.6,331.9 301.0,328.0 297.4,324.6 294.1,323.5 289.8,325.3 283.4,328.8 275.0,332.0 266.3,332.5 259.6,329.4 256.7,323.0 258.0,315.3 262.3,308.0 267.3,302.3 271.0,298.0 272.6,294.2 272.6,290.0 272.5,285.4 273.4,280.7 275.9,276.8 279.5,273.8 283.3,271.2 287.0,267.9 290.9,263.5 295.6,258.4 301.6,254.1 308.3,252.8 314.4,255.6 318.4,262.2 319.6,270.9 318.7,279.2 317.7,285.1 318.6,288.4 322.6,289.9 329.1,291.7 336.1,294.9 341.4,300.0" fill="none" stroke="#1d3a26" stroke-width="1.2"/><polygon points="384.3,300.0 381.2,311.4 375.5,321.6 368.9,330.7 362.4,339.0 355.9,346.9 348.9,354.3 340.5,360.0 330.9,363.4 320.9,364.4 311.3,364.1 302.2,364.2 293.1,365.8 282.8,368.9 270.9,371.9 258.1,372.6 246.0,369.1 237.0,360.9 232.3,349.2 231.9,336.2 234.0,324.0 236.3,313.5 237.0,304.4 236.0,295.5 234.2,286.0 233.5,275.8 235.3,265.6 239.8,256.2 246.4,248.2 254.0,241.1 262.0,234.2 270.6,227.3 280.3,221.1 291.3,217.2 302.9,217.2 313.8,221.8 322.7,230.1 329.2,240.0 334.3,249.1 339.8,255.8 347.1,260.5 356.8,264.5 367.6,269.9 377.1,277.9 383.1,288.3 384.3,300.0" fill="none" stroke="#1d3a26" stroke-width="1.2"/><polygon points="417.5,300.0 411.6,315.7 404.8,330.1 398.1,343.7 391.1,356.9 382.8,369.5 372.4,380.4 360.0,388.9 346.4,395.1 332.4,399.8 318.4,404.3 303.8,409.2 288.0,413.9 270.9,416.7 253.4,415.3 237.4,408.4 224.9,396.1 216.8,380.4 212.4,363.7 209.8,348.0 206.9,333.9 202.5,320.7 197.0,307.2 192.1,292.5 189.9,276.6 191.8,260.6 197.7,245.6 206.6,232.1 217.3,220.1 229.0,209.1 241.7,199.0 255.8,190.6 271.4,185.4 287.9,184.7 303.9,188.6 318.4,195.9 331.1,204.4 342.9,212.0 355.4,217.8 369.6,222.7 385.2,228.5 400.3,237.3 412.4,249.9 419.5,265.7 420.8,283.0 417.5,300.0" fill="none" stroke="#1d3a26" stroke-width="1.2"/><polygon points="445.3,300.0 441.0,319.8 436.5,339.1 430.9,358.3 423.1,376.9 412.1,394.1 398.0,408.8 381.7,421.1 364.2,431.6 345.8,441.0 326.4,449.6 305.5,456.4 283.2,459.4 260.9,456.8 240.3,447.9 223.0,433.4 209.6,415.6 199.3,397.3 190.0,379.9 180.1,363.8 169.0,347.7 158.0,330.2 149.3,310.5 145.1,289.2 146.5,267.4 153.1,246.5 163.6,227.5 176.3,210.1 190.5,194.2 206.1,179.8 223.7,167.8 243.2,159.3 264.0,155.5 284.9,156.1 304.9,159.9 323.9,164.6 342.6,169.0 362.1,172.6 382.9,177.0 404.1,184.3 423.5,196.4 438.6,213.4 447.6,234.3 450.6,256.8 449.1,279.0 445.3,300.0" fill="none" stroke="#1d3a26" stroke-width="1.2"/><polygon points="476.9,300.0 476.8,324.8 474.6,350.1 468.8,375.2 458.4,399.0 443.6,420.5 425.4,439.3 405.1,455.9 383.2,470.6 359.5,483.2 334.0,492.7 306.9,497.1 279.5,494.9 253.6,486.0 230.6,471.8 210.7,454.7 192.9,437.1 175.6,420.1 157.6,403.4 139.3,385.4 122.5,364.6 109.7,340.5 103.1,313.8 103.5,286.3 109.9,259.6 120.5,234.7 133.6,211.5 148.6,190.0 165.5,170.1 185.0,152.8 207.2,139.2 231.3,130.0 256.4,125.2 281.4,123.2 306.2,122.7 331.3,122.6 357.4,123.4 384.4,126.9 411.0,135.4 434.8,150.3 453.5,171.2 465.9,196.3 472.6,223.2 475.3,249.7 476.3,275.2 476.9,300.0" fill="none" stroke="#1d3a26" stroke-width="1.2"/><polygon points="517.9,300.0 520.5,331.0 517.7,362.4 508.7,392.9 494.0,421.2 474.9,446.8 452.7,469.6 428.1,490.0 401.2,507.4 371.7,520.7 340.2,528.1 308.0,528.6 276.6,522.4 247.3,511.2 220.3,497.4 194.4,482.8 168.7,468.1 142.5,452.1 116.9,433.0 94.3,409.4 77.4,381.0 68.0,349.3 66.3,316.3 70.9,284.0 79.7,253.2 91.1,224.0 104.7,196.1 120.9,169.8 140.4,145.9 163.7,125.5 190.0,109.4 218.2,97.4 247.3,88.6 277.1,81.7 307.8,76.5 339.8,74.1 372.6,76.5 404.5,85.7 433.2,102.5 456.7,126.0 474.2,153.8 486.7,183.3 496.1,212.7 504.3,241.4 511.8,270.2 517.9,300.0" fill="none" stroke="#1d3a26" stroke-width="1.2"/><polygon points="565.5,300.0 566.3,337.4 559.5,374.4 545.7,409.4 526.7,441.6 503.9,471.1 478.0,497.7 449.0,520.9 416.8,539.5 381.9,552.0 345.4,557.5 309.0,556.7 273.6,551.1 239.4,542.9 205.7,533.3 171.8,522.0 137.8,507.6 105.4,487.9 77.2,461.9 55.8,429.9 42.6,393.7 37.2,355.9 37.9,318.3 42.6,282.0 49.7,246.8 59.4,212.4 72.7,179.1 90.5,147.8 113.2,119.6 140.3,95.6 170.5,75.7 202.7,59.2 236.6,45.6 272.2,35.1 309.5,29.1 347.7,29.6 385.0,38.4 419.2,55.5 448.7,79.6 472.9,107.9 493.2,137.9 511.2,168.0 528.3,198.4 544.3,230.0 557.5,263.8 565.5,300.0" fill="none" stroke="#1d3a26" stroke-width="1.2"/></svg>