<svg xmlns="http://www.w3.org/2000/svg" width="2400" height="130" viewBox="0 0 2400 130" preserveAspectRatio="xMidYMax meet"><rect x="0" y="118" width="2400" height="12" fill="#163020"/><polygon points="-24.2,121.0 -10.4,106.5 4.2,121.0" fill="#163020"/><polygon points="-21.6,114.5 -10.5,100.0 1.6,114.5" fill="#163020"/><polygon points="-19.1,108.1 -10.6,93.6 -0.9,108.1" fill="#163020"/><polygon points="-16.5,101.6 -9.7,87.1 -3.5,101.6" fill="#163020"/><polygon points="-2.2,121.0 11.7,106.9 26.3,121.0" fill="#163020"/><polygon points="1.3,112.6 12.1,98.5 22.9,112.6" fill="#163020"/><polygon points="4.7,104.3 11.4,90.2 19.5,104.3" fill="#163020"/><polygon points="11.3,121.0 29.6,106.4 48.0,121.0" fill="#163020"/><polygon points="15.7,112.3 29.3,97.8 43.6,112.3" fill="#163020"/><polygon points="20.1,103.7 30.4,89.1 39.2,103.7" fill="#163020"/><polygon points="37.2,121.0 53.9,110.5 71.9,121.0" fill="#163020"/><polygon points="40.3,116.3 55.3,105.8 68.8,116.3" fill="#163020"/><polygon points="43.4,111.6 54.3,101.1 65.7,111.6" fill="#163020"/><polygon points="46.5,106.9 53.8,96.4 62.5,106.9" fill="#163020"/><polygon points="42.3,121.0 71.5,74.8 99.2,121.0" fill="#163020"/><polygon points="49.2,93.6 70.9,47.4 92.4,93.6" fill="#163020"/><polygon points="56.0,66.1 72.1,20.0 85.6,66.1" fill="#163020"/><polygon points="59.1,121.0 91.9,81.6 122.3,121.0" fill="#163020"/><polygon points="63.7,107.0 90.3,67.6 117.8,107.0" fill="#163020"/><polygon points="68.2,92.9 89.7,53.5 113.2,92.9" fill="#163020"/><polygon points="72.8,78.9 89.4,39.5 108.7,78.9" fill="#163020"/><polygon points="77.3,64.8 91.2,25.5 104.1,64.8" fill="#163020"/><polygon points="83.8,121.0 115.4,71.7 147.7,121.0" fill="#163020"/><polygon points="91.5,91.7 115.6,42.3 140.1,91.7" fill="#163020"/><polygon points="99.1,62.4 116.8,13.0 132.4,62.4" fill="#163020"/><polygon points="103.5,121.0 134.2,86.1 162.3,121.0" fill="#163020"/><polygon points="107.7,108.6 133.3,73.7 158.0,108.6" fill="#163020"/><polygon points="112.0,96.1 133.2,61.3 153.8,96.1" fill="#163020"/><polygon points="116.2,83.7 131.9,48.9 149.6,83.7" fill="#163020"/><polygon points="120.4,71.3 133.6,36.4 145.3,71.3" fill="#163020"/><polygon points="116.2,121.0 150.6,85.6 183.9,121.0" fill="#163020"/><polygon points="121.0,108.4 149.1,73.0 179.0,108.4" fill="#163020"/><polygon points="125.9,95.8 149.4,60.3 174.1,95.8" fill="#163020"/><polygon points="130.8,83.1 150.9,47.7 169.2,83.1" fill="#163020"/><polygon points="135.7,70.5 148.5,35.1 164.4,70.5" fill="#163020"/><polygon points="150.1,121.0 174.9,75.8 201.3,121.0" fill="#163020"/><polygon points="156.2,94.1 176.8,48.9 195.2,94.1" fill="#163020"/><polygon points="162.4,67.3 176.7,22.1 189.0,67.3" fill="#163020"/><polygon points="169.2,121.0 194.7,79.2 220.3,121.0" fill="#163020"/><polygon points="172.9,106.1 194.2,64.4 216.6,106.1" fill="#163020"/><polygon points="176.6,91.2 194.1,49.5 213.0,91.2" fill="#163020"/><polygon points="180.3,76.3 194.9,34.6 209.3,76.3" fill="#163020"/><polygon points="184.0,61.5 194.2,19.7 205.6,61.5" fill="#163020"/><polygon points="191.8,121.0 218.7,73.7 243.0,121.0" fill="#163020"/><polygon points="197.9,92.9 216.5,45.5 236.8,92.9" fill="#163020"/><polygon points="204.1,64.8 217.4,17.4 230.7,64.8" fill="#163020"/><polygon points="220.1,121.0 242.9,74.5 264.3,121.0" fill="#163020"/><polygon points="225.4,93.4 242.0,46.9 259.0,93.4" fill="#163020"/><polygon points="230.7,65.8 241.2,19.3 253.7,65.8" fill="#163020"/><polygon points="234.8,121.0 263.2,71.4 289.6,121.0" fill="#163020"/><polygon points="238.7,103.3 260.8,53.7 285.6,103.3" fill="#163020"/><polygon points="242.7,85.6 262.8,36.0 281.7,85.6" fill="#163020"/><polygon points="246.6,68.0 262.7,18.4 277.7,68.0" fill="#163020"/><polygon points="250.5,50.3 262.3,0.7 273.8,50.3" fill="#163020"/><polygon points="259.1,121.0 279.9,79.6 302.2,121.0" fill="#163020"/><polygon points="263.0,102.5 279.6,61.1 298.3,102.5" fill="#163020"/><polygon points="266.8,84.1 281.1,42.7 294.4,84.1" fill="#163020"/><polygon points="270.7,65.6 281.1,24.2 290.6,65.6" fill="#163020"/><polygon points="281.2,121.0 309.3,76.8 335.4,121.0" fill="#163020"/><polygon points="287.7,94.7 307.7,50.5 328.9,94.7" fill="#163020"/><polygon points="294.2,68.5 308.6,24.3 322.4,68.5" fill="#163020"/><polygon points="300.5,121.0 332.6,90.8 361.9,121.0" fill="#163020"/><polygon points="304.9,110.2 332.5,80.0 357.4,110.2" fill="#163020"/><polygon points="309.3,99.5 332.5,69.3 353.0,99.5" fill="#163020"/><polygon points="313.8,88.7 331.5,58.5 348.6,88.7" fill="#163020"/><polygon points="318.2,77.9 331.2,47.7 344.2,77.9" fill="#163020"/><polygon points="313.8,121.0 346.8,86.0 381.4,121.0" fill="#163020"/><polygon points="319.9,105.4 346.8,70.4 375.4,105.4" fill="#163020"/><polygon points="326.0,89.8 347.9,54.8 369.3,89.8" fill="#163020"/><polygon points="332.1,74.2 346.2,39.1 363.2,74.2" fill="#163020"/><polygon points="338.5,121.0 373.1,75.6 405.8,121.0" fill="#163020"/><polygon points="343.3,104.8 370.9,59.3 401.0,104.8" fill="#163020"/><polygon points="348.2,88.6 372.1,43.1 396.1,88.6" fill="#163020"/><polygon points="353.0,72.4 372.3,26.9 391.3,72.4" fill="#163020"/><polygon points="357.9,56.2 371.4,10.7 386.4,56.2" fill="#163020"/><polygon points="375.5,121.0 399.1,84.6 421.5,121.0" fill="#163020"/><polygon points="378.8,108.0 398.9,71.6 418.2,108.0" fill="#163020"/><polygon points="382.1,95.0 399.0,58.6 414.8,95.0" fill="#163020"/><polygon points="385.5,82.1 398.3,45.6 411.5,82.1" fill="#163020"/><polygon points="388.8,69.1 398.9,32.7 408.2,69.1" fill="#163020"/><polygon points="392.0,121.0 417.6,73.6 444.7,121.0" fill="#163020"/><polygon points="398.3,92.9 417.9,45.5 438.4,92.9" fill="#163020"/><polygon points="404.7,64.7 418.6,17.3 432.0,64.7" fill="#163020"/><polygon points="415.3,121.0 435.4,89.3 457.3,121.0" fill="#163020"/><polygon points="418.4,109.7 435.4,77.9 454.3,109.7" fill="#163020"/><polygon points="421.4,98.4 435.4,66.6 451.3,98.4" fill="#163020"/><polygon points="424.4,87.0 436.0,55.3 448.3,87.0" fill="#163020"/><polygon points="427.4,75.7 436.4,44.0 445.2,75.7" fill="#163020"/><polygon points="427.4,121.0 456.2,83.2 482.5,121.0" fill="#163020"/><polygon points="431.4,107.5 455.2,69.7 478.5,107.5" fill="#163020"/><polygon points="435.3,94.0 454.9,56.2 474.6,94.0" fill="#163020"/><polygon points="439.3,80.5 455.7,42.7 470.6,80.5" fill="#163020"/><polygon points="443.3,67.0 455.8,29.2 466.6,67.0" fill="#163020"/><polygon points="446.4,121.0 472.2,92.1 498.5,121.0" fill="#163020"/><polygon points="451.1,108.1 473.4,79.2 493.8,108.1" fill="#163020"/><polygon points="455.8,95.2 471.3,66.3 489.1,95.2" fill="#163020"/><polygon points="460.5,82.3 472.8,53.4 484.4,82.3" fill="#163020"/><polygon points="465.6,121.0 495.1,92.9 526.0,121.0" fill="#163020"/><polygon points="472.9,104.3 494.9,76.2 518.8,104.3" fill="#163020"/><polygon points="480.1,87.6 495.7,59.6 511.5,87.6" fill="#163020"/><polygon points="492.8,121.0 516.2,87.9 539.8,121.0" fill="#163020"/><polygon points="498.5,101.3 517.2,68.3 534.2,101.3" fill="#163020"/><polygon points="504.1,81.7 516.4,48.6 528.5,81.7" fill="#163020"/><polygon points="500.3,121.0 533.3,71.3 563.7,121.0" fill="#163020"/><polygon points="507.9,91.5 533.1,41.8 556.1,91.5" fill="#163020"/><polygon points="515.5,62.0 530.9,12.3 548.5,62.0" fill="#163020"/><polygon points="527.7,121.0 552.4,89.4 578.9,121.0" fill="#163020"/><polygon points="533.8,102.2 552.0,70.6 572.8,102.2" fill="#163020"/><polygon points="540.0,83.5 553.0,51.9 566.6,83.5" fill="#163020"/><polygon points="556.3,121.0 581.4,76.3 604.3,121.0" fill="#163020"/><polygon points="559.8,105.0 581.5,60.3 600.9,105.0" fill="#163020"/><polygon points="563.3,89.1 580.5,44.4 597.4,89.1" fill="#163020"/><polygon points="566.7,73.1 580.9,28.4 594.0,73.1" fill="#163020"/><polygon points="570.2,57.2 579.5,12.5 590.5,57.2" fill="#163020"/><polygon points="571.1,121.0 598.0,72.0 627.3,121.0" fill="#163020"/><polygon points="575.1,103.5 598.7,54.6 623.3,103.5" fill="#163020"/><polygon points="579.2,86.1 597.9,37.1 619.2,86.1" fill="#163020"/><polygon points="583.2,68.6 599.1,19.7 615.2,68.6" fill="#163020"/><polygon points="587.3,51.2 600.4,2.2 611.1,51.2" fill="#163020"/><polygon points="594.0,121.0 619.9,93.0 648.2,121.0" fill="#163020"/><polygon points="600.5,104.4 619.9,76.4 641.7,104.4" fill="#163020"/><polygon points="607.0,87.7 622.1,59.8 635.2,87.7" fill="#163020"/><polygon points="613.4,121.0 641.6,72.7 669.3,121.0" fill="#163020"/><polygon points="617.4,103.8 641.7,55.4 665.3,103.8" fill="#163020"/><polygon points="621.4,86.5 641.1,38.2 661.3,86.5" fill="#163020"/><polygon points="625.5,69.3 641.6,21.0 657.2,69.3" fill="#163020"/><polygon points="629.5,52.1 641.4,3.7 653.2,52.1" fill="#163020"/><polygon points="638.5,121.0 667.8,89.6 698.5,121.0" fill="#163020"/><polygon points="645.7,102.4 667.4,71.0 691.3,102.4" fill="#163020"/><polygon points="652.9,83.7 668.9,52.3 684.1,83.7" fill="#163020"/><polygon points="656.3,121.0 689.3,73.0 722.5,121.0" fill="#163020"/><polygon points="664.3,92.5 691.1,44.4 714.6,92.5" fill="#163020"/><polygon points="672.2,63.9 691.1,15.9 706.7,63.9" fill="#163020"/><polygon points="681.7,121.0 706.3,89.4 729.1,121.0" fill="#163020"/><polygon points="686.0,106.9 706.3,75.3 724.8,106.9" fill="#163020"/><polygon points="690.2,92.9 705.1,61.3 720.6,92.9" fill="#163020"/><polygon points="694.5,78.8 704.6,47.2 716.3,78.8" fill="#163020"/><polygon points="702.7,121.0 731.3,78.1 759.8,121.0" fill="#163020"/><polygon points="706.8,105.7 731.7,62.9 755.7,105.7" fill="#163020"/><polygon points="710.9,90.4 731.4,47.6 751.6,90.4" fill="#163020"/><polygon points="715.0,75.2 732.5,32.3 747.5,75.2" fill="#163020"/><polygon points="719.1,59.9 730.1,17.0 743.3,59.9" fill="#163020"/><polygon points="725.2,121.0 757.8,88.2 790.1,121.0" fill="#163020"/><polygon points="729.9,109.3 756.9,76.6 785.4,109.3" fill="#163020"/><polygon points="734.5,97.6 758.0,64.9 780.8,97.6" fill="#163020"/><polygon points="739.2,86.0 758.4,53.2 776.1,86.0" fill="#163020"/><polygon points="743.9,74.3 756.7,41.5 771.4,74.3" fill="#163020"/><polygon points="754.1,121.0 779.8,88.2 807.7,121.0" fill="#163020"/><polygon points="760.5,101.5 780.7,68.8 801.3,101.5" fill="#163020"/><polygon points="766.9,82.1 780.3,49.3 794.9,82.1" fill="#163020"/><polygon points="767.0,121.0 795.0,76.6 824.9,121.0" fill="#163020"/><polygon points="772.2,101.2 795.8,56.8 819.7,101.2" fill="#163020"/><polygon points="777.4,81.4 796.5,37.0 814.5,81.4" fill="#163020"/><polygon points="782.6,61.6 796.1,17.2 809.2,61.6" fill="#163020"/><polygon points="782.7,121.0 812.5,72.6 842.1,121.0" fill="#163020"/><polygon points="789.8,92.2 813.4,43.8 834.9,92.2" fill="#163020"/><polygon points="797.0,63.5 812.6,15.0 827.8,63.5" fill="#163020"/><polygon points="805.0,121.0 830.3,91.4 853.6,121.0" fill="#163020"/><polygon points="810.8,103.4 828.6,73.8 847.8,103.4" fill="#163020"/><polygon points="816.7,85.8 828.7,56.2 842.0,85.8" fill="#163020"/><polygon points="813.3,121.0 847.2,76.4 878.0,121.0" fill="#163020"/><polygon points="819.1,101.1 846.5,56.5 872.2,101.1" fill="#163020"/><polygon points="824.9,81.2 847.0,36.6 866.4,81.2" fill="#163020"/><polygon points="830.8,61.3 844.8,16.7 860.6,61.3" fill="#163020"/><polygon points="840.3,121.0 861.7,75.9 885.2,121.0" fill="#163020"/><polygon points="844.3,100.9 863.3,55.8 881.2,100.9" fill="#163020"/><polygon points="848.4,80.8 862.4,35.7 877.2,80.8" fill="#163020"/><polygon points="852.4,60.7 863.7,15.7 873.1,60.7" fill="#163020"/><polygon points="856.8,121.0 887.1,74.4 919.6,121.0" fill="#163020"/><polygon points="862.5,100.3 888.8,53.7 913.9,100.3" fill="#163020"/><polygon points="868.1,79.5 887.8,33.0 908.3,79.5" fill="#163020"/><polygon points="873.8,58.8 886.8,12.2 902.6,58.8" fill="#163020"/><polygon points="876.5,121.0 908.7,89.7 942.2,121.0" fill="#163020"/><polygon points="882.4,107.1 910.3,75.8 936.3,107.1" fill="#163020"/><polygon points="888.3,93.1 908.4,61.9 930.3,93.1" fill="#163020"/><polygon points="894.2,79.2 907.8,47.9 924.4,79.2" fill="#163020"/><polygon points="894.7,121.0 926.4,86.8 958.9,121.0" fill="#163020"/><polygon points="900.5,105.7 926.9,71.5 953.2,105.7" fill="#163020"/><polygon points="906.3,90.5 927.4,56.3 947.4,90.5" fill="#163020"/><polygon points="912.1,75.2 927.9,41.0 941.6,75.2" fill="#163020"/><polygon points="913.9,121.0 945.1,93.7 978.4,121.0" fill="#163020"/><polygon points="919.7,108.8 947.6,81.5 972.6,108.8" fill="#163020"/><polygon points="925.5,96.7 945.4,69.3 966.8,96.7" fill="#163020"/><polygon points="931.3,84.5 944.9,57.2 961.0,84.5" fill="#163020"/><polygon points="942.4,121.0 968.0,77.6 991.2,121.0" fill="#163020"/><polygon points="945.9,105.5 965.8,62.1 987.7,105.5" fill="#163020"/><polygon points="949.4,90.0 967.8,46.6 984.2,90.0" fill="#163020"/><polygon points="952.9,74.5 966.0,31.1 980.6,74.5" fill="#163020"/><polygon points="956.4,59.1 965.7,15.6 977.1,59.1" fill="#163020"/><polygon points="956.2,121.0 988.1,82.4 1018.7,121.0" fill="#163020"/><polygon points="960.7,107.2 988.2,68.6 1014.2,107.2" fill="#163020"/><polygon points="965.2,93.4 988.0,54.8 1009.7,93.4" fill="#163020"/><polygon points="969.7,79.7 987.0,41.0 1005.2,79.7" fill="#163020"/><polygon points="974.2,65.9 986.1,27.3 1000.7,65.9" fill="#163020"/><polygon points="986.7,121.0 1011.6,86.7 1035.5,121.0" fill="#163020"/><polygon points="992.5,100.6 1010.6,66.4 1029.6,100.6" fill="#163020"/><polygon points="998.4,80.3 1010.6,46.0 1023.8,80.3" fill="#163020"/><polygon points="1007.3,121.0 1030.7,85.1 1055.5,121.0" fill="#163020"/><polygon points="1013.1,99.6 1031.8,63.7 1049.7,99.6" fill="#163020"/><polygon points="1018.8,78.3 1031.1,42.4 1043.9,78.3" fill="#163020"/><polygon points="1028.2,121.0 1056.3,90.3 1084.1,121.0" fill="#163020"/><polygon points="1033.2,107.3 1054.7,76.6 1079.1,107.3" fill="#163020"/><polygon points="1038.2,93.7 1055.5,63.0 1074.0,93.7" fill="#163020"/><polygon points="1043.3,80.0 1055.9,49.3 1069.0,80.0" fill="#163020"/><polygon points="1052.2,121.0 1079.1,79.3 1105.2,121.0" fill="#163020"/><polygon points="1056.9,102.4 1078.7,60.7 1100.4,102.4" fill="#163020"/><polygon points="1061.7,83.8 1079.4,42.1 1095.6,83.8" fill="#163020"/><polygon points="1066.5,65.2 1079.9,23.5 1090.9,65.2" fill="#163020"/><polygon points="1079.3,121.0 1103.5,79.2 1127.2,121.0" fill="#163020"/><polygon points="1082.7,106.1 1102.8,64.3 1123.8,106.1" fill="#163020"/><polygon points="1086.2,91.2 1104.0,49.3 1120.3,91.2" fill="#163020"/><polygon points="1089.6,76.3 1103.8,34.4 1116.8,76.3" fill="#163020"/><polygon points="1093.1,61.3 1103.6,19.5 1113.4,61.3" fill="#163020"/><polygon points="1100.8,121.0 1122.1,89.7 1141.5,121.0" fill="#163020"/><polygon points="1105.7,102.4 1121.4,71.2 1136.6,102.4" fill="#163020"/><polygon points="1110.6,83.9 1121.7,52.6 1131.7,83.9" fill="#163020"/><polygon points="1114.0,121.0 1142.6,73.9 1170.1,121.0" fill="#163020"/><polygon points="1118.1,104.2 1142.1,57.2 1166.1,104.2" fill="#163020"/><polygon points="1122.1,87.4 1141.4,40.4 1162.0,87.4" fill="#163020"/><polygon points="1126.1,70.7 1142.5,23.6 1158.0,70.7" fill="#163020"/><polygon points="1130.2,53.9 1140.7,6.8 1154.0,53.9" fill="#163020"/><polygon points="1145.3,121.0 1166.2,76.6 1188.3,121.0" fill="#163020"/><polygon points="1149.2,101.2 1167.5,56.8 1184.5,101.2" fill="#163020"/><polygon points="1153.1,81.4 1167.3,37.0 1180.6,81.4" fill="#163020"/><polygon points="1156.9,61.7 1166.8,17.3 1176.7,61.7" fill="#163020"/><polygon points="1167.4,121.0 1189.7,73.2 1210.8,121.0" fill="#163020"/><polygon points="1172.6,92.6 1189.4,44.8 1205.6,92.6" fill="#163020"/><polygon points="1177.8,64.2 1190.1,16.4 1200.4,64.2" fill="#163020"/><polygon points="1179.3,121.0 1212.8,72.5 1244.3,121.0" fill="#163020"/><polygon points="1184.0,103.7 1213.1,55.2 1239.6,103.7" fill="#163020"/><polygon points="1188.7,86.4 1211.6,37.9 1234.9,86.4" fill="#163020"/><polygon points="1193.4,69.1 1213.1,20.6 1230.3,69.1" fill="#163020"/><polygon points="1198.0,51.8 1211.6,3.3 1225.6,51.8" fill="#163020"/><polygon points="1202.6,121.0 1229.8,74.5 1255.2,121.0" fill="#163020"/><polygon points="1208.9,93.4 1228.3,46.9 1248.9,93.4" fill="#163020"/><polygon points="1215.2,65.7 1229.6,19.3 1242.6,65.7" fill="#163020"/><polygon points="1224.0,121.0 1249.6,88.8 1276.3,121.0" fill="#163020"/><polygon points="1227.8,109.5 1249.6,77.3 1272.6,109.5" fill="#163020"/><polygon points="1231.6,98.1 1249.7,65.9 1268.8,98.1" fill="#163020"/><polygon points="1235.3,86.6 1250.3,54.4 1265.0,86.6" fill="#163020"/><polygon points="1239.1,75.1 1249.2,42.9 1261.3,75.1" fill="#163020"/><polygon points="1238.3,121.0 1267.9,78.4 1298.1,121.0" fill="#163020"/><polygon points="1245.5,95.7 1267.7,53.0 1290.9,95.7" fill="#163020"/><polygon points="1252.7,70.3 1268.1,27.7 1283.7,70.3" fill="#163020"/><polygon points="1258.6,121.0 1285.1,75.2 1309.5,121.0" fill="#163020"/><polygon points="1262.2,104.7 1282.8,58.8 1305.8,104.7" fill="#163020"/><polygon points="1265.9,88.3 1285.0,42.5 1302.1,88.3" fill="#163020"/><polygon points="1269.5,72.0 1284.2,26.1 1298.5,72.0" fill="#163020"/><polygon points="1273.2,55.6 1283.9,9.8 1294.8,55.6" fill="#163020"/><polygon points="1285.8,121.0 1311.4,87.5 1336.7,121.0" fill="#163020"/><polygon points="1290.4,106.0 1311.9,72.5 1332.1,106.0" fill="#163020"/><polygon points="1295.0,91.1 1312.0,57.6 1327.6,91.1" fill="#163020"/><polygon points="1299.5,76.1 1312.3,42.6 1323.0,76.1" fill="#163020"/><polygon points="1305.8,121.0 1332.2,88.0 1359.4,121.0" fill="#163020"/><polygon points="1310.6,106.3 1333.1,73.4 1354.6,106.3" fill="#163020"/><polygon points="1315.5,91.6 1332.4,58.7 1349.8,91.6" fill="#163020"/><polygon points="1320.3,76.9 1331.7,44.0 1344.9,76.9" fill="#163020"/><polygon points="1325.0,121.0 1354.9,91.4 1382.4,121.0" fill="#163020"/><polygon points="1331.9,103.4 1353.9,73.8 1375.5,103.4" fill="#163020"/><polygon points="1338.8,85.8 1354.2,56.2 1368.6,85.8" fill="#163020"/><polygon points="1337.6,121.0 1368.3,84.5 1401.9,121.0" fill="#163020"/><polygon points="1345.4,99.3 1369.4,62.8 1394.2,99.3" fill="#163020"/><polygon points="1353.1,77.6 1368.8,41.0 1386.5,77.6" fill="#163020"/><polygon points="1363.7,121.0 1388.4,76.8 1414.3,121.0" fill="#163020"/><polygon points="1368.3,101.3 1388.0,57.1 1409.8,101.3" fill="#163020"/><polygon points="1372.8,81.6 1387.8,37.4 1405.2,81.6" fill="#163020"/><polygon points="1377.4,61.9 1389.1,17.7 1400.7,61.9" fill="#163020"/><polygon points="1387.9,121.0 1415.7,86.3 1446.1,121.0" fill="#163020"/><polygon points="1392.1,108.6 1415.7,73.9 1441.9,108.6" fill="#163020"/><polygon points="1396.3,96.2 1416.3,61.5 1437.7,96.2" fill="#163020"/><polygon points="1400.5,83.9 1418.0,49.1 1433.6,83.9" fill="#163020"/><polygon points="1404.7,71.5 1417.4,36.7 1429.4,71.5" fill="#163020"/><polygon points="1413.5,121.0 1435.0,83.4 1456.7,121.0" fill="#163020"/><polygon points="1418.7,98.7 1434.6,61.1 1451.5,98.7" fill="#163020"/><polygon points="1423.9,76.3 1434.8,38.8 1446.4,76.3" fill="#163020"/><polygon points="1427.9,121.0 1459.4,72.2 1488.1,121.0" fill="#163020"/><polygon points="1435.2,92.0 1456.8,43.1 1480.8,92.0" fill="#163020"/><polygon points="1442.4,63.0 1456.6,14.1 1473.6,63.0" fill="#163020"/><polygon points="1443.6,121.0 1478.5,78.7 1510.5,121.0" fill="#163020"/><polygon points="1449.7,102.2 1476.0,59.9 1504.5,102.2" fill="#163020"/><polygon points="1455.7,83.3 1477.4,41.1 1498.4,83.3" fill="#163020"/><polygon points="1461.7,64.5 1478.2,22.2 1492.4,64.5" fill="#163020"/><polygon points="1471.0,121.0 1495.5,78.3 1519.4,121.0" fill="#163020"/><polygon points="1474.5,105.8 1494.3,63.1 1515.9,105.8" fill="#163020"/><polygon points="1478.0,90.5 1496.4,47.8 1512.5,90.5" fill="#163020"/><polygon points="1481.5,75.3 1495.9,32.6 1509.0,75.3" fill="#163020"/><polygon points="1484.9,60.1 1494.8,17.4 1505.5,60.1" fill="#163020"/><polygon points="1488.7,121.0 1514.5,85.8 1542.9,121.0" fill="#163020"/><polygon points="1493.6,105.3 1515.6,70.1 1538.0,105.3" fill="#163020"/><polygon points="1498.4,89.6 1515.8,54.4 1533.1,89.6" fill="#163020"/><polygon points="1503.3,73.9 1515.6,38.7 1528.2,73.9" fill="#163020"/><polygon points="1509.1,121.0 1535.3,73.8 1561.9,121.0" fill="#163020"/><polygon points="1515.4,93.0 1536.1,45.8 1555.6,93.0" fill="#163020"/><polygon points="1521.7,64.9 1536.7,17.7 1549.2,64.9" fill="#163020"/><polygon points="1526.5,121.0 1553.9,75.7 1581.5,121.0" fill="#163020"/><polygon points="1531.4,100.8 1554.9,55.6 1576.6,100.8" fill="#163020"/><polygon points="1536.4,80.7 1554.3,35.4 1571.6,80.7" fill="#163020"/><polygon points="1541.3,60.5 1553.5,15.2 1566.7,60.5" fill="#163020"/><polygon points="1548.3,121.0 1571.6,72.8 1596.1,121.0" fill="#163020"/><polygon points="1552.6,99.5 1572.1,51.4 1591.8,99.5" fill="#163020"/><polygon points="1556.9,78.1 1572.5,29.9 1587.5,78.1" fill="#163020"/><polygon points="1561.2,56.6 1571.9,8.4 1583.2,56.6" fill="#163020"/><polygon points="1565.0,121.0 1587.2,74.7 1610.1,121.0" fill="#163020"/><polygon points="1570.4,93.5 1587.0,47.3 1604.7,93.5" fill="#163020"/><polygon points="1575.8,66.0 1587.1,19.8 1599.3,66.0" fill="#163020"/><polygon points="1582.5,121.0 1611.6,74.1 1638.1,121.0" fill="#163020"/><polygon points="1586.5,104.3 1609.2,57.3 1634.1,104.3" fill="#163020"/><polygon points="1590.5,87.5 1610.9,40.6 1630.1,87.5" fill="#163020"/><polygon points="1594.5,70.8 1610.3,23.9 1626.1,70.8" fill="#163020"/><polygon points="1598.5,54.1 1611.0,7.2 1622.1,54.1" fill="#163020"/><polygon points="1607.4,121.0 1633.2,79.5 1661.2,121.0" fill="#163020"/><polygon points="1613.9,96.3 1633.5,54.8 1654.7,96.3" fill="#163020"/><polygon points="1620.3,71.6 1634.8,30.1 1648.3,71.6" fill="#163020"/><polygon points="1626.6,121.0 1652.9,80.9 1679.9,121.0" fill="#163020"/><polygon points="1630.5,106.7 1654.6,66.7 1676.1,106.7" fill="#163020"/><polygon points="1634.3,92.4 1653.4,52.4 1672.2,92.4" fill="#163020"/><polygon points="1638.2,78.2 1652.9,38.1 1668.4,78.2" fill="#163020"/><polygon points="1642.0,63.9 1653.2,23.8 1664.6,63.9" fill="#163020"/><polygon points="1642.2,121.0 1671.1,89.0 1702.4,121.0" fill="#163020"/><polygon points="1647.6,106.7 1672.4,74.8 1696.9,106.7" fill="#163020"/><polygon points="1653.0,92.5 1673.0,60.5 1691.5,92.5" fill="#163020"/><polygon points="1658.4,78.2 1671.3,46.3 1686.1,78.2" fill="#163020"/><polygon points="1659.9,121.0 1690.4,83.2 1720.2,121.0" fill="#163020"/><polygon points="1664.3,107.5 1691.5,69.7 1715.9,107.5" fill="#163020"/><polygon points="1668.6,94.0 1691.1,56.2 1711.5,94.0" fill="#163020"/><polygon points="1673.0,80.6 1689.5,42.7 1707.2,80.6" fill="#163020"/><polygon points="1677.3,67.1 1689.7,29.3 1702.9,67.1" fill="#163020"/><polygon points="1687.2,121.0 1710.0,78.0 1730.8,121.0" fill="#163020"/><polygon points="1692.5,95.5 1709.1,52.5 1725.6,95.5" fill="#163020"/><polygon points="1697.7,69.9 1709.4,27.0 1720.3,69.9" fill="#163020"/><polygon points="1698.8,121.0 1725.8,74.3 1752.5,121.0" fill="#163020"/><polygon points="1705.2,93.3 1725.6,46.6 1746.1,93.3" fill="#163020"/><polygon points="1711.7,65.6 1725.5,18.9 1739.6,65.6" fill="#163020"/><polygon points="1709.9,121.0 1741.8,93.1 1776.2,121.0" fill="#163020"/><polygon points="1715.8,108.6 1741.6,80.7 1770.2,108.6" fill="#163020"/><polygon points="1721.8,96.2 1743.0,68.3 1764.3,96.2" fill="#163020"/><polygon points="1727.8,83.8 1743.3,55.9 1758.3,83.8" fill="#163020"/><polygon points="1735.6,121.0 1765.7,90.8 1798.3,121.0" fill="#163020"/><polygon points="1741.3,107.6 1766.2,77.4 1792.7,107.6" fill="#163020"/><polygon points="1746.9,94.1 1767.1,63.9 1787.0,94.1" fill="#163020"/><polygon points="1752.5,80.7 1766.7,50.5 1781.4,80.7" fill="#163020"/><polygon points="1758.9,121.0 1789.6,80.1 1820.6,121.0" fill="#163020"/><polygon points="1764.4,102.8 1789.5,61.9 1815.0,102.8" fill="#163020"/><polygon points="1770.0,84.5 1790.8,43.6 1809.5,84.5" fill="#163020"/><polygon points="1775.5,66.3 1791.2,25.4 1803.9,66.3" fill="#163020"/><polygon points="1780.2,121.0 1807.5,80.0 1837.2,121.0" fill="#163020"/><polygon points="1784.3,106.4 1809.4,65.4 1833.1,106.4" fill="#163020"/><polygon points="1788.4,91.8 1809.0,50.8 1829.0,91.8" fill="#163020"/><polygon points="1792.5,77.2 1808.0,36.2 1824.9,77.2" fill="#163020"/><polygon points="1796.6,62.6 1807.5,21.6 1820.8,62.6" fill="#163020"/><polygon points="1804.6,121.0 1826.7,81.6 1849.0,121.0" fill="#163020"/><polygon points="1808.6,103.5 1827.0,64.1 1845.0,103.5" fill="#163020"/><polygon points="1812.6,85.9 1826.3,46.5 1841.0,85.9" fill="#163020"/><polygon points="1816.6,68.4 1826.2,29.0 1837.0,68.4" fill="#163020"/><polygon points="1824.6,121.0 1850.3,78.2 1877.4,121.0" fill="#163020"/><polygon points="1828.4,105.7 1850.4,62.9 1873.6,105.7" fill="#163020"/><polygon points="1832.2,90.4 1851.8,47.6 1869.8,90.4" fill="#163020"/><polygon points="1836.0,75.2 1851.2,32.3 1866.0,75.2" fill="#163020"/><polygon points="1839.8,59.9 1851.8,17.0 1862.2,59.9" fill="#163020"/><polygon points="1845.4,121.0 1869.5,91.7 1891.7,121.0" fill="#163020"/><polygon points="1851.0,103.6 1869.3,74.3 1886.2,103.6" fill="#163020"/><polygon points="1856.5,86.2 1867.6,56.8 1880.6,86.2" fill="#163020"/><polygon points="1855.2,121.0 1887.0,87.2 1916.2,121.0" fill="#163020"/><polygon points="1859.6,109.0 1885.5,75.2 1911.8,109.0" fill="#163020"/><polygon points="1864.0,96.9 1885.6,63.2 1907.4,96.9" fill="#163020"/><polygon points="1868.4,84.9 1885.1,51.1 1903.0,84.9" fill="#163020"/><polygon points="1872.8,72.9 1885.4,39.1 1898.6,72.9" fill="#163020"/><polygon points="1878.1,121.0 1903.1,81.9 1930.4,121.0" fill="#163020"/><polygon points="1881.9,107.1 1904.1,68.0 1926.6,107.1" fill="#163020"/><polygon points="1885.7,93.1 1903.8,54.0 1922.9,93.1" fill="#163020"/><polygon points="1889.4,79.2 1903.6,40.1 1919.1,79.2" fill="#163020"/><polygon points="1893.2,65.2 1903.2,26.1 1915.3,65.2" fill="#163020"/><polygon points="1903.7,121.0 1933.2,75.1 1959.8,121.0" fill="#163020"/><polygon points="1910.4,93.7 1932.2,47.8 1953.1,93.7" fill="#163020"/><polygon points="1917.2,66.4 1931.1,20.5 1946.4,66.4" fill="#163020"/><polygon points="1920.7,121.0 1947.1,76.9 1973.9,121.0" fill="#163020"/><polygon points="1924.5,105.3 1946.7,61.2 1970.0,105.3" fill="#163020"/><polygon points="1928.4,89.6 1948.6,45.5 1966.2,89.6" fill="#163020"/><polygon points="1932.2,73.9 1947.1,29.8 1962.4,73.9" fill="#163020"/><polygon points="1936.0,58.1 1948.1,14.1 1958.6,58.1" fill="#163020"/><polygon points="1949.2,121.0 1975.3,83.5 2000.6,121.0" fill="#163020"/><polygon points="1953.8,104.3 1975.8,66.8 1996.0,104.3" fill="#163020"/><polygon points="1958.4,87.6 1974.4,50.1 1991.3,87.6" fill="#163020"/><polygon points="1963.1,70.9 1975.4,33.4 1986.7,70.9" fill="#163020"/><polygon points="1962.2,121.0 1992.2,72.6 2025.0,121.0" fill="#163020"/><polygon points="1966.8,103.7 1992.3,55.3 2020.5,103.7" fill="#163020"/><polygon points="1971.3,86.5 1992.9,38.1 2016.0,86.5" fill="#163020"/><polygon points="1975.8,69.2 1992.4,20.8 2011.5,69.2" fill="#163020"/><polygon points="1980.3,51.9 1994.5,3.5 2006.9,51.9" fill="#163020"/><polygon points="1999.9,121.0 2019.8,75.3 2039.9,121.0" fill="#163020"/><polygon points="2002.7,104.7 2019.0,59.1 2037.0,104.7" fill="#163020"/><polygon points="2005.6,88.4 2019.9,42.8 2034.1,88.4" fill="#163020"/><polygon points="2008.5,72.2 2020.1,26.5 2031.2,72.2" fill="#163020"/><polygon points="2011.4,55.9 2019.9,10.2 2028.4,55.9" fill="#163020"/><polygon points="2016.9,121.0 2041.6,93.1 2064.4,121.0" fill="#163020"/><polygon points="2022.6,104.4 2040.5,76.6 2058.7,104.4" fill="#163020"/><polygon points="2028.3,87.9 2041.1,60.0 2053.0,87.9" fill="#163020"/><polygon points="2028.7,121.0 2057.8,71.9 2085.7,121.0" fill="#163020"/><polygon points="2035.5,91.8 2056.7,42.8 2078.9,91.8" fill="#163020"/><polygon points="2042.4,62.7 2055.8,13.6 2072.0,62.7" fill="#163020"/><polygon points="2045.7,121.0 2077.4,89.2 2109.3,121.0" fill="#163020"/><polygon points="2053.4,102.1 2076.3,70.2 2101.7,102.1" fill="#163020"/><polygon points="2061.0,83.2 2078.6,51.3 2094.0,83.2" fill="#163020"/><polygon points="2071.9,121.0 2098.8,77.8 2126.1,121.0" fill="#163020"/><polygon points="2076.7,101.8 2098.9,58.6 2121.2,101.8" fill="#163020"/><polygon points="2081.6,82.5 2098.9,39.4 2116.3,82.5" fill="#163020"/><polygon points="2086.5,63.3 2098.9,20.1 2111.5,63.3" fill="#163020"/><polygon points="2087.5,121.0 2116.9,89.9 2144.3,121.0" fill="#163020"/><polygon points="2091.6,109.9 2116.9,78.9 2140.2,109.9" fill="#163020"/><polygon points="2095.7,98.8 2115.2,67.8 2136.1,98.8" fill="#163020"/><polygon points="2099.7,87.8 2116.7,56.7 2132.0,87.8" fill="#163020"/><polygon points="2103.8,76.7 2115.6,45.6 2127.9,76.7" fill="#163020"/><polygon points="2111.5,121.0 2143.7,82.6 2174.5,121.0" fill="#163020"/><polygon points="2117.2,103.9 2144.1,65.5 2168.8,103.9" fill="#163020"/><polygon points="2122.9,86.8 2143.3,48.5 2163.2,86.8" fill="#163020"/><polygon points="2128.5,69.7 2143.5,31.4 2157.5,69.7" fill="#163020"/><polygon points="2142.5,121.0 2169.4,84.0 2196.0,121.0" fill="#163020"/><polygon points="2147.3,104.5 2169.4,67.6 2191.2,104.5" fill="#163020"/><polygon points="2152.1,88.1 2169.1,51.1 2186.4,88.1" fill="#163020"/><polygon points="2156.9,71.6 2168.8,34.6 2181.6,71.6" fill="#163020"/><polygon points="2158.7,121.0 2187.7,78.3 2214.7,121.0" fill="#163020"/><polygon points="2165.4,95.6 2186.5,52.9 2208.0,95.6" fill="#163020"/><polygon points="2172.1,70.2 2186.2,27.5 2201.3,70.2" fill="#163020"/><polygon points="2182.5,121.0 2208.6,73.3 2233.2,121.0" fill="#163020"/><polygon points="2186.2,104.0 2208.2,56.3 2229.5,104.0" fill="#163020"/><polygon points="2189.8,87.0 2207.0,39.3 2225.9,87.0" fill="#163020"/><polygon points="2193.5,70.0 2209.0,22.3 2222.3,70.0" fill="#163020"/><polygon points="2197.1,53.0 2206.9,5.3 2218.6,53.0" fill="#163020"/><polygon points="2214.0,121.0 2234.6,86.7 2256.8,121.0" fill="#163020"/><polygon points="2217.9,105.7 2236.3,71.4 2253.0,105.7" fill="#163020"/><polygon points="2221.7,90.4 2234.4,56.1 2249.1,90.4" fill="#163020"/><polygon points="2225.6,75.1 2234.6,40.8 2245.3,75.1" fill="#163020"/><polygon points="2240.7,121.0 2261.4,72.0 2282.8,121.0" fill="#163020"/><polygon points="2244.5,99.2 2262.1,50.2 2279.0,99.2" fill="#163020"/><polygon points="2248.3,77.3 2262.0,28.3 2275.2,77.3" fill="#163020"/><polygon points="2252.1,55.5 2262.5,6.5 2271.4,55.5" fill="#163020"/><polygon points="2262.5,121.0 2288.1,74.6 2313.1,121.0" fill="#163020"/><polygon points="2267.1,100.3 2288.8,53.9 2308.6,100.3" fill="#163020"/><polygon points="2271.6,79.6 2287.8,33.2 2304.0,79.6" fill="#163020"/><polygon points="2276.2,58.9 2287.9,12.5 2299.5,58.9" fill="#163020"/><polygon points="2281.3,121.0 2312.3,88.9 2340.4,121.0" fill="#163020"/><polygon points="2286.6,106.7 2311.6,74.6 2335.1,106.7" fill="#163020"/><polygon points="2291.9,92.4 2310.6,60.3 2329.8,92.4" fill="#163020"/><polygon points="2297.2,78.1 2309.7,46.0 2324.4,78.1" fill="#163020"/><polygon points="2316.5,121.0 2333.7,104.6 2351.6,121.0" fill="#163020"/><polygon points="2319.1,115.1 2333.3,98.7 2349.1,115.1" fill="#163020"/><polygon points="2321.6,109.3 2333.8,92.9 2346.6,109.3" fill="#163020"/><polygon points="2324.1,103.4 2333.3,87.0 2344.0,103.4" fill="#163020"/><polygon points="2326.6,97.6 2333.8,81.2 2341.5,97.6" fill="#163020"/><polygon points="2337.4,121.0 2355.2,109.8 2372.0,121.0" fill="#163020"/><polygon points="2339.9,117.0 2354.1,105.8 2369.5,117.0" fill="#163020"/><polygon points="2342.4,113.0 2353.9,101.8 2367.0,113.0" fill="#163020"/><polygon points="2344.9,109.0 2355.3,97.8 2364.5,109.0" fill="#163020"/><polygon points="2347.3,105.0 2354.9,93.8 2362.0,105.0" fill="#163020"/><polygon points="2357.7,121.0 2373.0,104.2 2388.0,121.0" fill="#163020"/><polygon points="2360.4,113.5 2372.7,96.8 2385.2,113.5" fill="#163020"/><polygon points="2363.1,106.1 2373.1,89.3 2382.5,106.1" fill="#163020"/><polygon points="2365.8,98.6 2373.4,81.8 2379.8,98.6" fill="#163020"/><polygon points="2375.5,121.0 2393.7,109.4 2412.2,121.0" fill="#163020"/><polygon points="2379.9,114.1 2393.6,102.5 2407.8,114.1" fill="#163020"/><polygon points="2384.3,107.2 2394.0,95.7 2403.4,107.2" fill="#163020"/><polygon points="2401.2,121.0 2416.7,108.3 2433.2,121.0" fill="#163020"/><polygon points="2404.0,115.3 2417.0,102.6 2430.3,115.3" fill="#163020"/><polygon points="2406.9,109.7 2417.1,97.0 2427.4,109.7" fill="#163020"/><polygon points="2409.8,104.0 2416.7,91.3 2424.5,104.0" fill="#163020"/></svg>