<svg xmlns="http://www.w3.org/2000/svg" width="1400" height="150" viewBox="0 0 1400 150" preserveAspectRatio="none"><rect x="0" y="124" width="1400" height="26" fill="#13241a"/><path d="M -23.6 132.0 L 0.0 19.0 L 23.6 132.0 Z" fill="#13241a"/><path d="M 8.4 132.0 L 27.5 -8.2 L 46.5 132.0 Z" fill="#13241a"/><path d="M 39.5 132.0 L 57.4 -4.0 L 75.3 132.0 Z" fill="#13241a"/><path d="M 53.1 132.0 L 80.7 13.1 L 108.2 132.0 Z" fill="#13241a"/><path d="M 87.9 132.0 L 110.1 22.8 L 132.4 132.0 Z" fill="#13241a"/><path d="M 122.5 132.0 L 140.0 -6.6 L 157.5 132.0 Z" fill="#13241a"/><path d="M 146.8 132.0 L 163.9 33.2 L 181.0 132.0 Z" fill="#13241a"/><path d="M 170.5 132.0 L 189.7 9.6 L 208.8 132.0 Z" fill="#13241a"/><path d="M 194.9 132.0 L 219.7 15.8 L 244.5 132.0 Z" fill="#13241a"/><path d="M 226.5 132.0 L 250.0 22.0 L 273.4 132.0 Z" fill="#13241a"/><path d="M 261.5 132.0 L 281.0 28.2 L 300.5 132.0 Z" fill="#13241a"/><path d="M 284.7 132.0 L 302.7 11.5 L 320.8 132.0 Z" fill="#13241a"/><path d="M 307.2 132.0 L 335.6 23.4 L 364.0 132.0 Z" fill="#13241a"/><path d="M 342.5 132.0 L 359.8 -13.1 L 377.2 132.0 Z" fill="#13241a"/><path d="M 376.9 132.0 L 394.6 22.7 L 412.2 132.0 Z" fill="#13241a"/><path d="M 408.7 132.0 L 426.5 31.3 L 444.3 132.0 Z" fill="#13241a"/><path d="M 420.1 132.0 L 448.0 21.8 L 476.0 132.0 Z" fill="#13241a"/><path d="M 455.3 132.0 L 472.7 42.7 L 490.2 132.0 Z" fill="#13241a"/><path d="M 474.3 132.0 L 496.5 11.7 L 518.6 132.0 Z" fill="#13241a"/><path d="M 509.4 132.0 L 531.3 -2.4 L 553.1 132.0 Z" fill="#13241a"/><path d="M 534.8 132.0 L 554.2 21.1 L 573.5 132.0 Z" fill="#13241a"/><path d="M 563.3 132.0 L 587.3 -16.3 L 611.3 132.0 Z" fill="#13241a"/><path d="M 584.3 132.0 L 611.5 22.9 L 638.6 132.0 Z" fill="#13241a"/><path d="M 611.3 132.0 L 633.4 39.6 L 655.5 132.0 Z" fill="#13241a"/><path d="M 644.9 132.0 L 665.3 27.3 L 685.6 132.0 Z" fill="#13241a"/><path d="M 663.1 132.0 L 687.6 35.4 L 712.1 132.0 Z" fill="#13241a"/><path d="M 694.9 132.0 L 717.1 24.4 L 739.4 132.0 Z" fill="#13241a"/><path d="M 728.4 132.0 L 749.8 40.3 L 771.3 132.0 Z" fill="#13241a"/><path d="M 751.2 132.0 L 775.4 34.1 L 799.6 132.0 Z" fill="#13241a"/><path d="M 775.4 132.0 L 798.9 7.0 L 822.3 132.0 Z" fill="#13241a"/><path d="M 810.4 132.0 L 832.2 8.8 L 854.1 132.0 Z" fill="#13241a"/><path d="M 835.2 132.0 L 855.0 14.9 L 874.9 132.0 Z" fill="#13241a"/><path d="M 855.9 132.0 L 879.9 -6.1 L 903.9 132.0 Z" fill="#13241a"/><path d="M 879.7 132.0 L 908.3 -13.2 L 936.9 132.0 Z" fill="#13241a"/><path d="M 905.6 132.0 L 932.7 11.7 L 959.8 132.0 Z" fill="#13241a"/><path d="M 938.6 132.0 L 957.9 -12.4 L 977.1 132.0 Z" fill="#13241a"/><path d="M 960.3 132.0 L 980.1 21.7 L 999.9 132.0 Z" fill="#13241a"/><path d="M 980.1 132.0 L 1003.8 24.6 L 1027.5 132.0 Z" fill="#13241a"/><path d="M 1004.2 132.0 L 1026.4 40.2 L 1048.6 132.0 Z" fill="#13241a"/><path d="M 1032.9 132.0 L 1056.7 2.8 L 1080.6 132.0 Z" fill="#13241a"/><path d="M 1063.6 132.0 L 1086.1 -12.8 L 1108.6 132.0 Z" fill="#13241a"/><path d="M 1100.0 132.0 L 1117.0 -15.5 L 1134.0 132.0 Z" fill="#13241a"/><path d="M 1124.3 132.0 L 1144.9 0.2 L 1165.5 132.0 Z" fill="#13241a"/><path d="M 1141.5 132.0 L 1167.2 12.6 L 1192.9 132.0 Z" fill="#13241a"/><path d="M 1178.4 132.0 L 1199.4 -12.3 L 1220.4 132.0 Z" fill="#13241a"/><path d="M 1211.2 132.0 L 1233.0 -9.3 L 1254.9 132.0 Z" fill="#13241a"/><path d="M 1241.8 132.0 L 1266.2 10.8 L 1290.5 132.0 Z" fill="#13241a"/><path d="M 1275.1 132.0 L 1292.7 48.7 L 1310.3 132.0 Z" fill="#13241a"/><path d="M 1295.3 132.0 L 1322.7 -17.5 L 1350.2 132.0 Z" fill="#13241a"/><path d="M 1325.6 132.0 L 1349.4 -0.1 L 1373.2 132.0 Z" fill="#13241a"/><path d="M 1353.9 132.0 L 1377.0 13.0 L 1400.1 132.0 Z" fill="#13241a"/><path d="M 1385.5 132.0 L 1402.6 43.6 L 1419.6 132.0 Z" fill="#13241a"/></svg>