<svg xmlns="http://www.w3.org/2000/svg" width="1400" height="150" viewBox="0 0 1400 150" preserveAspectRatio="none"><rect x="0" y="124" width="1400" height="26" fill="#0f1d14"/><path d="M -18.0 132.0 L 0.0 33.6 L 18.0 132.0 Z" fill="#0f1d14"/><path d="M 10.9 132.0 L 27.9 43.4 L 44.8 132.0 Z" fill="#0f1d14"/><path d="M 40.7 132.0 L 60.1 -2.1 L 79.6 132.0 Z" fill="#0f1d14"/><path d="M 67.2 132.0 L 85.2 37.8 L 103.3 132.0 Z" fill="#0f1d14"/><path d="M 94.9 132.0 L 119.4 47.8 L 144.0 132.0 Z" fill="#0f1d14"/><path d="M 131.2 132.0 L 151.7 36.4 L 172.2 132.0 Z" fill="#0f1d14"/><path d="M 149.3 132.0 L 174.2 8.6 L 199.1 132.0 Z" fill="#0f1d14"/><path d="M 180.1 132.0 L 197.9 17.5 L 215.8 132.0 Z" fill="#0f1d14"/><path d="M 194.0 132.0 L 219.3 29.8 L 244.7 132.0 Z" fill="#0f1d14"/><path d="M 230.5 132.0 L 252.3 15.2 L 274.0 132.0 Z" fill="#0f1d14"/><path d="M 259.0 132.0 L 279.5 38.6 L 299.9 132.0 Z" fill="#0f1d14"/><path d="M 273.0 132.0 L 301.9 18.3 L 330.8 132.0 Z" fill="#0f1d14"/><path d="M 307.8 132.0 L 332.8 39.7 L 357.7 132.0 Z" fill="#0f1d14"/><path d="M 335.3 132.0 L 359.7 35.8 L 384.2 132.0 Z" fill="#0f1d14"/><path d="M 359.7 132.0 L 383.6 20.1 L 407.5 132.0 Z" fill="#0f1d14"/><path d="M 399.8 132.0 L 417.3 42.7 L 434.7 132.0 Z" fill="#0f1d14"/><path d="M 415.1 132.0 L 442.4 10.2 L 469.6 132.0 Z" fill="#0f1d14"/><path d="M 445.9 132.0 L 468.2 37.5 L 490.5 132.0 Z" fill="#0f1d14"/><path d="M 465.9 132.0 L 494.4 43.9 L 522.9 132.0 Z" fill="#0f1d14"/><path d="M 508.8 132.0 L 525.8 -15.3 L 542.7 132.0 Z" fill="#0f1d14"/><path d="M 526.8 132.0 L 551.5 39.2 L 576.1 132.0 Z" fill="#0f1d14"/><path d="M 554.6 132.0 L 576.8 36.6 L 598.9 132.0 Z" fill="#0f1d14"/><path d="M 582.9 132.0 L 601.5 9.1 L 620.2 132.0 Z" fill="#0f1d14"/><path d="M 606.6 132.0 L 627.8 18.8 L 649.0 132.0 Z" fill="#0f1d14"/><path d="M 640.7 132.0 L 662.8 10.9 L 684.9 132.0 Z" fill="#0f1d14"/><path d="M 672.4 132.0 L 689.9 35.5 L 707.3 132.0 Z" fill="#0f1d14"/><path d="M 692.7 132.0 L 721.3 9.3 L 749.8 132.0 Z" fill="#0f1d14"/><path d="M 729.4 132.0 L 750.1 10.2 L 770.7 132.0 Z" fill="#0f1d14"/><path d="M 746.9 132.0 L 773.0 13.8 L 799.2 132.0 Z" fill="#0f1d14"/><path d="M 784.1 132.0 L 803.3 36.0 L 822.5 132.0 Z" fill="#0f1d14"/><path d="M 808.3 132.0 L 830.2 47.0 L 852.1 132.0 Z" fill="#0f1d14"/><path d="M 841.0 132.0 L 860.4 20.6 L 879.7 132.0 Z" fill="#0f1d14"/><path d="M 862.4 132.0 L 882.1 32.3 L 901.8 132.0 Z" fill="#0f1d14"/><path d="M 894.1 132.0 L 914.0 21.3 L 933.9 132.0 Z" fill="#0f1d14"/><path d="M 912.4 132.0 L 936.0 -13.1 L 959.6 132.0 Z" fill="#0f1d14"/><path d="M 943.1 132.0 L 970.5 5.4 L 997.8 132.0 Z" fill="#0f1d14"/><path d="M 979.3 132.0 L 998.6 43.2 L 1017.9 132.0 Z" fill="#0f1d14"/><path d="M 998.0 132.0 L 1024.5 5.2 L 1050.9 132.0 Z" fill="#0f1d14"/><path d="M 1032.2 132.0 L 1056.9 13.9 L 1081.6 132.0 Z" fill="#0f1d14"/><path d="M 1060.1 132.0 L 1082.9 23.0 L 1105.7 132.0 Z" fill="#0f1d14"/><path d="M 1100.1 132.0 L 1117.4 4.4 L 1134.6 132.0 Z" fill="#0f1d14"/><path d="M 1122.0 132.0 L 1149.2 31.3 L 1176.3 132.0 Z" fill="#0f1d14"/><path d="M 1157.4 132.0 L 1179.9 18.1 L 1202.4 132.0 Z" fill="#0f1d14"/><path d="M 1197.1 132.0 L 1213.9 34.7 L 1230.7 132.0 Z" fill="#0f1d14"/><path d="M 1217.2 132.0 L 1235.4 -9.7 L 1253.5 132.0 Z" fill="#0f1d14"/><path d="M 1241.3 132.0 L 1268.7 12.3 L 1296.1 132.0 Z" fill="#0f1d14"/><path d="M 1265.5 132.0 L 1292.2 8.4 L 1318.9 132.0 Z" fill="#0f1d14"/><path d="M 1308.4 132.0 L 1326.1 19.8 L 1343.8 132.0 Z" fill="#0f1d14"/><path d="M 1329.9 132.0 L 1354.1 -8.9 L 1378.2 132.0 Z" fill="#0f1d14"/><path d="M 1348.5 132.0 L 1375.9 44.1 L 1403.4 132.0 Z" fill="#0f1d14"/><path d="M 1383.7 132.0 L 1401.3 26.1 L 1419.0 132.0 Z" fill="#0f1d14"/><path d="M 1407.3 132.0 L 1427.8 -3.6 L 1448.4 132.0 Z" fill="#0f1d14"/></svg>